<svg xmlns="http://www.w3.org/2000/svg" viewBox="0 0 100 100">
  <path d="M35.3 40.6s.4 4 1.2 7.3c.9 3 6 10.1 12.3 10.3H51c6.4 0 11.6-7.2 12.5-10.3.8-3.4 1.2-7.3 1.2-7.3 1 .3 2.4.1 2.8-1 .7-1.6 1.9-9.8.6-10.7-.3-.3-.6-.3-1-.3-.3-9.3 1.9-14.3-5.8-17.4-1-6.2-9.4-6-11.1-6.2h-.7c-20 .6-16.3 14.4-16.6 23.6-.4 0-.7 0-1 .3-1.3.9 0 9 .6 10.6.4 1.2 1.8 1.4 2.8 1zM50 88a79 79 0 0 0 6-12c-1-3.8-2.3-7-3.1-8.6.6-1.2 2.2-2.5 2.5-3.7.3-1.2-.4-2-1.3-2.9-.4-.3-1.1-.4-1.6-.2l-1.7.8c-.4.2-1.2.2-1.6 0l-1.7-.8c-.5-.2-1.1-.1-1.6.2-1 .8-1.6 1.7-1.3 2.9.3 1.2 1.9 2.5 2.5 3.7-.8 1.6-2.2 4.8-3 8.5 1.7 4.4 3.7 8.7 5.9 12z"/>
  <path d="M94.8 91.7l-3-18c-.6-2.4-3-5-5.4-5.9L71.2 62s-2.6-1.1-3.3-1.8L65.3 58c-.8-.6-1.9-.8-2 .4v.2c.7 4-6.6 25.6-13.2 33H50a77 77 0 0 1-13.4-33v-.2c0-1.2-1-1-1.9-.4l-2.6 2.2c-.7.7-3.3 1.8-3.3 1.8l-15.2 5.8a9.5 9.5 0 0 0-5.4 6l-3 17.9c-.2 1.8 1 3.3 3 3.3h83.7c1.8 0 3.1-1.5 2.9-3.3z"/>
</svg>
